<svg width="138" height="154" viewBox="0 0 138 154" fill="none" xmlns="http://www.w3.org/2000/svg">
<path fill-rule="evenodd" clip-rule="evenodd" d="M38.6886 2.16593C39.656 4.10068 38.8718 6.45332 36.937 7.4207C31.7799 9.99928 19.7295 22.009 25.1293 49.0086C26.278 54.7521 30.481 60.3648 35.6655 65.1334C40.7854 69.8427 46.3691 73.277 49.3951 74.7378C51.3431 75.6782 52.1599 78.0197 51.2195 79.9677C50.2791 81.9157 47.9376 82.7325 45.9896 81.7921C42.2989 80.0104 36.0704 76.1489 30.3625 70.8988C24.7192 65.7082 19.0787 58.698 17.4481 50.5448C11.4528 20.5679 24.6943 4.78412 33.4338 0.414354C35.3686 -0.553023 37.7212 0.231186 38.6886 2.16593Z" fill="#DA844B"/>
<path fill-rule="evenodd" clip-rule="evenodd" d="M38.8953 3.04171C39.379 4.00908 38.9869 5.1854 38.0196 5.66909C31.9668 8.69547 19.6186 21.6487 25.1673 49.3926C26.4365 55.7386 30.9989 61.7006 36.298 66.5748C41.565 71.4192 47.3098 74.9603 50.5021 76.5014C51.4761 76.9716 51.8845 78.1423 51.4143 79.1163C50.944 80.0903 49.7733 80.4987 48.7993 80.0285C45.2747 78.327 39.2075 74.5723 33.6466 69.4575C28.118 64.3723 22.8369 57.7115 21.3267 50.1607C15.4803 20.9281 28.424 6.08789 36.268 2.16592C37.2353 1.68223 38.4117 2.07433 38.8953 3.04171Z" fill="#BD6B34"/>
<path fill-rule="evenodd" clip-rule="evenodd" d="M0.224355 56.8115C0.944283 54.7717 3.18148 53.7017 5.22128 54.4216C6.85145 54.997 9.93398 55.7572 13.4884 55.9777C17.0585 56.1992 20.7858 55.856 23.9148 54.515C25.903 53.6629 28.2055 54.5839 29.0576 56.5721C29.9097 58.5604 28.9887 60.8629 27.0005 61.715C22.3474 63.7092 17.2734 64.0609 13.0034 63.796C8.71777 63.5301 4.92143 62.6227 2.61419 61.8084C0.574392 61.0884 -0.495573 58.8512 0.224355 56.8115Z" fill="#DA844B"/>
<path fill-rule="evenodd" clip-rule="evenodd" d="M40.4104 26.5495C42.4934 27.1327 43.7092 29.2942 43.126 31.3772C42.212 34.6415 40.2052 39.4541 37.0218 43.4715C33.8545 47.4685 28.9903 51.2919 22.4483 50.9071C20.289 50.7801 18.6414 48.9266 18.7684 46.7672C18.8955 44.6078 20.7489 42.9602 22.9083 43.0873C25.8161 43.2583 28.4794 41.6389 30.8823 38.6064C33.2691 35.5944 34.8755 31.7911 35.5828 29.2651C36.166 27.1821 38.3274 25.9663 40.4104 26.5495Z" fill="#DA844B"/>
<path fill-rule="evenodd" clip-rule="evenodd" d="M3.87288 18.1372C5.99708 17.7287 8.05023 19.1195 8.45873 21.2437C8.96221 23.8618 10.2888 27.8359 12.5079 31.0484C14.7211 34.2523 17.3837 36.1324 20.5938 36.1324C22.7569 36.1324 24.5104 37.886 24.5104 40.0491C24.5104 42.2122 22.7569 43.9658 20.5938 43.9658C13.7981 43.9658 9.04924 39.824 6.06273 35.5005C3.08211 31.1856 1.42092 26.1268 0.766343 22.723C0.357845 20.5988 1.74869 18.5457 3.87288 18.1372Z" fill="#DA844B"/>
<path fill-rule="evenodd" clip-rule="evenodd" d="M36.3749 16.256C38.0028 17.6804 38.1677 20.1548 36.7433 21.7827C35.6421 23.0412 33.7506 24.6973 31.3663 25.985C28.9779 27.2749 25.793 28.3543 22.2458 27.9601C20.0959 27.7213 18.5467 25.7848 18.7856 23.6349C19.0245 21.485 20.961 19.9358 23.1109 20.1747C24.5664 20.3365 26.1296 19.9104 27.6439 19.0926C29.1622 18.2726 30.328 17.2188 30.8481 16.6244C32.2725 14.9965 34.7469 14.8316 36.3749 16.256Z" fill="#DA844B"/>
<path fill-rule="evenodd" clip-rule="evenodd" d="M16.6771 4.73846C18.8403 4.73846 20.5938 6.49202 20.5938 8.65513C20.5938 9.42282 20.7038 10.8124 21.0394 12.1967C21.4005 13.6862 21.8807 14.5732 22.226 14.9185C23.7555 16.448 23.7555 18.9279 22.226 20.4575C20.6964 21.9871 18.2165 21.9871 16.687 20.4575C14.8088 18.5793 13.8993 15.9921 13.4266 14.0422C12.9284 11.987 12.7605 9.97195 12.7605 8.65513C12.7605 6.49202 14.514 4.73846 16.6771 4.73846Z" fill="#DA844B"/>
<path fill-rule="evenodd" clip-rule="evenodd" d="M25.6398 10.9985C26.5961 11.5037 26.9618 12.6885 26.4565 13.6448C24.2853 17.7547 19.5967 28.9332 20.9227 43.5189C21.0206 44.596 20.2268 45.5485 19.1497 45.6465C18.0726 45.7444 17.1201 44.9506 17.0221 43.8735C15.6064 28.3008 20.5953 16.3547 22.9935 11.8152C23.4987 10.8589 24.6835 10.4933 25.6398 10.9985Z" fill="#FAA973"/>
<path fill-rule="evenodd" clip-rule="evenodd" d="M96.3017 2.16593C95.3343 4.10068 96.1185 6.45332 98.0533 7.4207C103.21 9.99928 115.261 22.009 109.861 49.0086C108.712 54.7521 104.509 60.3648 99.3248 65.1334C94.2049 69.8427 88.6212 73.2769 85.5952 74.7378C83.6472 75.6782 82.8304 78.0197 83.7708 79.9677C84.7112 81.9157 87.0527 82.7325 89.0007 81.7921C92.6914 80.0104 98.9199 76.1489 104.628 70.8988C110.271 65.7082 115.912 58.698 117.542 50.5448C123.537 20.5679 110.296 4.78412 101.556 0.414354C99.6217 -0.553023 97.2691 0.231186 96.3017 2.16593Z" fill="#DA844B"/>
<path fill-rule="evenodd" clip-rule="evenodd" d="M100.012 3.04171C99.5279 4.00908 99.92 5.1854 100.887 5.66909C106.94 8.69547 119.288 21.6487 113.74 49.3926C112.47 55.7386 107.908 61.7006 102.609 66.5748C97.342 71.4192 91.5971 74.9603 88.4049 76.5014C87.4309 76.9716 87.0225 78.1423 87.4927 79.1163C87.9629 80.0903 89.1336 80.4987 90.1076 80.0285C93.6322 78.327 99.6995 74.5723 105.26 69.4575C110.789 64.3723 116.07 57.7115 117.58 50.1607C123.427 20.9281 110.483 6.08789 102.639 2.16592C101.672 1.68223 100.495 2.07433 100.012 3.04171Z" fill="#BD6B34"/>
<path fill-rule="evenodd" clip-rule="evenodd" d="M134.766 56.8113C134.046 54.7715 131.809 53.7015 129.769 54.4214C128.139 54.9968 125.056 55.757 121.502 55.9775C117.932 56.199 114.204 55.8558 111.075 54.5148C109.087 53.6627 106.785 54.5837 105.933 56.572C105.081 58.5602 106.002 60.8627 107.99 61.7148C112.643 63.709 117.717 64.0607 121.987 63.7958C126.272 63.5299 130.069 62.6225 132.376 61.8082C134.416 61.0883 135.486 58.8511 134.766 56.8113Z" fill="#DA844B"/>
<path fill-rule="evenodd" clip-rule="evenodd" d="M94.5798 26.5495C92.4968 27.1327 91.281 29.2942 91.8642 31.3772C92.7782 34.6415 94.785 39.454 97.9685 43.4715C101.136 47.4684 106 51.2919 112.542 50.9071C114.701 50.7801 116.349 48.9266 116.222 46.7672C116.095 44.6078 114.241 42.9602 112.082 43.0873C109.174 43.2583 106.511 41.6389 104.108 38.6064C101.721 35.5944 100.115 31.7911 99.4075 29.2651C98.8242 27.1821 96.6628 25.9663 94.5798 26.5495Z" fill="#DA844B"/>
<path fill-rule="evenodd" clip-rule="evenodd" d="M131.117 18.1372C128.993 17.7287 126.94 19.1196 126.532 21.2438C126.028 23.8619 124.701 27.836 122.482 31.0485C120.269 34.2524 117.607 36.1325 114.396 36.1325C112.233 36.1325 110.48 37.8861 110.48 40.0492C110.48 42.2123 112.233 43.9658 114.396 43.9658C121.192 43.9658 125.941 39.824 128.928 35.5006C131.908 31.1856 133.569 26.1269 134.224 22.7231C134.632 20.5989 133.242 18.5457 131.117 18.1372Z" fill="#DA844B"/>
<path fill-rule="evenodd" clip-rule="evenodd" d="M98.6154 14.2977C96.9875 15.7221 96.8225 18.1965 98.2469 19.8244C99.3481 21.0829 101.24 22.739 103.624 24.0267C106.012 25.3166 109.197 26.396 112.744 26.0018C114.894 25.763 116.443 23.8265 116.205 21.6766C115.966 19.5267 114.029 17.9775 111.879 18.2164C110.424 18.3781 108.861 17.9521 107.346 17.1343C105.828 16.3143 104.662 15.2605 104.142 14.6661C102.718 13.0382 100.243 12.8733 98.6154 14.2977Z" fill="#DA844B"/>
<path fill-rule="evenodd" clip-rule="evenodd" d="M116.355 2.78009C114.192 2.78009 112.438 4.53364 112.438 6.69676C112.438 7.46445 112.328 8.85407 111.992 10.2383C111.631 11.7278 111.151 12.6148 110.806 12.9601C109.276 14.4897 109.276 16.9696 110.806 18.4991C112.335 20.0287 114.815 20.0287 116.345 18.4991C118.223 16.6209 119.133 14.0338 119.605 12.0838C120.104 10.0286 120.271 8.01358 120.271 6.69676C120.271 4.53364 118.518 2.78009 116.355 2.78009Z" fill="#DA844B"/>
<path d="M8.78162 77.5696C23.7901 67.564 40.0492 74.327 46.3028 78.9593C51.8614 83.4062 50.4718 88.2238 49.0821 90.0767C29.6267 95.6354 14.1087 84.0548 8.78162 77.5696Z" fill="#944F21"/>
<path fill-rule="evenodd" clip-rule="evenodd" d="M48.6926 75.8554L48.7494 75.9009C52.2459 78.698 53.9207 81.9487 54.1999 85.1505C54.4661 88.2026 53.4261 90.8124 52.2155 92.4267L51.4249 93.4808L50.1581 93.8427C28.6234 99.9955 11.6239 87.2003 5.7551 80.0557L3.00804 76.7114L6.60904 74.3107C23.5983 62.9846 41.7535 70.7153 48.6341 75.812L48.6926 75.8554ZM8.78161 77.5696C9.51008 78.4564 10.4291 79.4386 11.5227 80.4591C18.4264 86.9015 32.2872 94.8753 49.0821 90.0768C50.4718 88.2238 51.8614 83.4062 46.3027 78.9593C40.5245 74.6791 26.2039 68.5798 12.2206 75.5704C11.0703 76.1455 9.92237 76.8091 8.78161 77.5696Z" fill="#652E0A"/>
<path d="M87.2981 78.2648C102.862 64.3681 123.893 72.4745 132.462 78.2648C131.304 80.8125 126.209 86.8807 115.092 90.7718C103.974 94.6629 91.9303 90.5402 87.2981 87.9924V78.2648Z" fill="#944F21"/>
<path fill-rule="evenodd" clip-rule="evenodd" d="M137.398 76.8724L136.028 79.8855C134.318 83.6474 128.231 90.3227 116.385 94.4686C110.014 96.6986 103.509 96.594 98.0942 95.6558C92.6902 94.7195 88.1089 92.9084 85.4105 91.4243L83.3814 90.3082V76.5111L84.6895 75.3432C93.522 67.457 103.898 65.8824 112.979 66.9945C121.97 68.0955 129.948 71.8392 134.655 75.0195L137.398 76.8724ZM130.629 80.9785C131.553 79.8927 132.15 78.951 132.462 78.2648C123.893 72.4745 102.862 64.3681 87.2981 78.2648V87.9924C91.9303 90.5402 103.974 94.6629 115.091 90.7718C122.776 88.0823 127.583 84.3527 130.202 81.4644C130.351 81.2995 130.494 81.1375 130.629 80.9785Z" fill="#652E0A"/>
<path fill-rule="evenodd" clip-rule="evenodd" d="M122.546 80.2294C122.593 79.1489 121.755 78.2348 120.674 78.1878C117.681 78.0576 112.861 78.1378 108.034 78.799C103.297 79.4479 98.177 80.702 94.8841 83.1537C94.0166 83.7996 93.8369 85.0265 94.4828 85.894C95.1287 86.7615 96.3556 86.9412 97.2231 86.2953C99.6635 84.4783 103.916 83.3164 108.566 82.6794C113.126 82.0547 117.708 81.9791 120.504 82.1008C121.585 82.1478 122.499 81.3099 122.546 80.2294Z" fill="#BD6B34"/>
<path fill-rule="evenodd" clip-rule="evenodd" d="M18.511 79.2272C18.6937 78.1612 19.706 77.4452 20.7721 77.628C23.7255 78.1343 28.4188 79.2327 32.9962 80.9004C37.4888 82.5373 42.2276 84.8466 44.927 87.9397C45.6382 88.7546 45.5541 89.9917 44.7392 90.7029C43.9244 91.414 42.6873 91.33 41.9761 90.5151C39.9756 88.2228 36.065 86.1871 31.6554 84.5804C27.3305 83.0047 22.8686 81.9612 20.1103 81.4883C19.0443 81.3056 18.3282 80.2933 18.511 79.2272Z" fill="#BD6B34"/>
<path d="M71.3167 59.5043C33.2164 59.5043 34.4905 104.205 40.0492 117.176C58.8098 119.955 97.0257 124.263 99.8051 119.26C103.279 113.007 114.397 59.5043 71.3167 59.5043Z" fill="#B3642F"/>
<path fill-rule="evenodd" clip-rule="evenodd" d="M37.311 120.73L36.4492 118.719C34.8185 114.914 33.6406 109.193 33.3202 102.892C32.9971 96.5379 33.5287 89.2812 35.5522 82.375C37.5762 75.4666 41.1494 68.7303 47.0344 63.7115C52.9752 58.645 60.9715 55.5877 71.3167 55.5877C82.9636 55.5877 91.4247 59.2391 97.2419 65.2344C102.966 71.1335 105.732 78.8923 106.89 86.4435C108.051 94.0138 107.649 101.696 106.753 107.849C106.304 110.938 105.723 113.692 105.129 115.911C104.561 118.029 103.909 119.939 103.229 121.162C102.571 122.347 101.579 123.074 100.782 123.517C99.9628 123.971 99.0649 124.282 98.2081 124.508C96.496 124.96 94.4068 125.211 92.1686 125.346C87.6565 125.617 81.8406 125.448 75.6651 125.045C63.2751 124.236 48.9173 122.449 39.4752 121.05L37.311 120.73ZM40.0492 117.176C34.4905 104.205 33.2164 59.5044 71.3167 59.5044C114.397 59.5044 103.279 113.007 99.805 119.26C97.0257 124.263 58.8097 119.955 40.0492 117.176Z" fill="#7A3C12"/>
<path fill-rule="evenodd" clip-rule="evenodd" d="M39.6839 116.261C59.6066 118.894 89.5246 121.707 91.9717 117.302C95.0095 111.834 103.891 70.2421 77.2749 59.8792C113.324 64.642 103.109 113.314 99.805 119.26C97.0257 124.263 58.8097 119.955 40.0492 117.176C39.9252 116.887 39.8033 116.581 39.6839 116.261Z" fill="#A75822"/>
<path fill-rule="evenodd" clip-rule="evenodd" d="M57.9188 66.4128C58.8922 67.7107 58.6292 69.5519 57.3313 70.5253C54.5301 72.6262 47.9584 79.7184 45.9687 90.0288C45.6613 91.6218 44.1207 92.6639 42.5278 92.3565C40.9348 92.0491 39.8927 90.5085 40.2001 88.9156C42.5187 76.901 50.0797 68.6203 53.8063 65.8253C55.1042 64.8519 56.9454 65.115 57.9188 66.4128Z" fill="#CB7941"/>
<path d="M67.8427 85.9084C67.8427 89.7458 65.3539 92.8567 62.284 92.8567C59.214 92.8567 56.7253 89.7458 56.7253 85.9084C56.7253 82.0709 59.214 78.96 62.284 78.96C65.3539 78.96 67.8427 82.0709 67.8427 85.9084Z" fill="#6B310A"/>
<path d="M85.9083 85.9084C85.9083 89.7458 83.4196 92.8567 80.3496 92.8567C77.2797 92.8567 74.791 89.7458 74.791 85.9084C74.791 82.0709 77.2797 78.96 80.3496 78.96C83.4196 78.96 85.9083 82.0709 85.9083 85.9084Z" fill="#6B310A"/>
<path d="M37.3763 106.058C48.4937 95.4969 61.0007 101.658 65.8646 106.058H85.32C111.029 94.2462 117.977 114.396 104.775 133.852C91.5735 153.307 61.6956 151.917 49.8834 145.664C38.0712 139.41 23.4796 119.26 37.3763 106.058Z" fill="#FFEFB9"/>
<path fill-rule="evenodd" clip-rule="evenodd" d="M65.8646 106.058H85.32C111.029 94.2463 117.977 114.396 104.775 133.852C91.5735 153.307 61.6956 151.917 49.8834 145.664C38.0712 139.41 23.4796 119.26 37.3763 106.058C48.4937 95.4969 61.0007 101.658 65.8646 106.058ZM84.4785 102.142H67.2902C64.3114 99.799 59.8107 97.3654 54.5476 96.5744C48.3189 95.6383 41.1766 97.0458 34.6787 103.219C30.5433 107.147 28.4121 111.739 27.9113 116.53C27.4188 121.242 28.5244 125.9 30.422 130.084C34.173 138.356 41.3903 145.599 48.0508 149.125C54.8134 152.706 66.0786 154.664 77.2862 153.286C88.5712 151.899 100.572 147.022 108.016 136.051C111.571 130.813 113.858 125.401 114.774 120.338C115.684 115.311 115.281 110.355 113.07 106.34C110.778 102.178 106.782 99.4811 101.571 98.7985C96.7166 98.1624 90.9636 99.2771 84.4785 102.142Z" fill="#CBB56B"/>
<path fill-rule="evenodd" clip-rule="evenodd" d="M42.7112 106.281C43.4998 107.022 43.5389 108.261 42.7986 109.05C41.2619 110.686 39.4528 114.066 39.5225 118.652C39.5913 123.189 41.5056 129.086 47.701 135.751C48.4374 136.543 48.3922 137.782 47.6 138.519C46.8079 139.255 45.5687 139.21 44.8324 138.418C38.1028 131.178 35.6924 124.387 35.6063 118.712C35.5208 113.086 37.7263 108.73 39.9431 106.369C40.6834 105.58 41.9227 105.541 42.7112 106.281Z" fill="#FFF7DD"/>
<path fill-rule="evenodd" clip-rule="evenodd" d="M48.4427 144.841C48.9261 145.137 49.407 145.412 49.8833 145.664C61.6955 151.917 91.5735 153.307 104.775 133.852C114.112 120.092 113.37 105.986 103.042 103.083C109.455 108.149 108.829 120.148 100.859 131.894C88.5002 150.106 61.5284 150.052 48.4427 144.841ZM63.3111 104.1C62.0088 103.244 60.4792 102.42 58.7837 101.754C60.036 102.525 61.1063 103.339 61.9479 104.1H63.3111Z" fill="#F1DE9D"/>
<path d="M91.467 113.007C91.467 122.6 82.1344 133.157 70.6219 133.157C59.1095 133.157 49.7769 122.6 49.7769 113.007C49.7769 103.413 59.1095 97.0254 70.6219 97.0254C82.1344 97.0254 91.467 103.413 91.467 113.007Z" fill="#FB470E"/>
<path fill-rule="evenodd" clip-rule="evenodd" d="M88.1551 129.425C83.7765 133.88 77.6008 137.074 70.6219 137.074C63.6431 137.074 57.4673 133.88 53.0888 129.425C48.7425 125.002 45.8602 119.021 45.8602 113.007C45.8602 106.8 48.9253 101.7 53.5499 98.2718C58.1124 94.89 64.182 93.1087 70.6219 93.1087C77.0619 93.1087 83.1315 94.89 87.6939 98.2718C92.3185 101.7 95.3837 106.8 95.3837 113.007C95.3837 119.021 92.5014 125.002 88.1551 129.425ZM70.6219 133.157C82.1344 133.157 91.467 122.6 91.467 113.007C91.467 103.413 82.1344 97.0254 70.6219 97.0254C59.1095 97.0254 49.7769 103.413 49.7769 113.007C49.7769 122.6 59.1095 133.157 70.6219 133.157Z" fill="#953416"/>
<path d="M73.5794 105.989C74.7214 110.127 71.7647 114.553 66.9754 115.874C62.186 117.196 57.3777 114.914 56.2357 110.776C55.0937 106.638 58.0504 102.212 62.8398 100.89C67.6291 99.5685 72.4374 101.851 73.5794 105.989Z" fill="#EC683E"/>
<path fill-rule="evenodd" clip-rule="evenodd" d="M66.2382 103.048C66.8523 103.938 66.6283 105.158 65.7379 105.772C65.2201 106.129 63.9517 107.122 63.1319 108.106C62.4395 108.937 61.2046 109.049 60.3737 108.357C59.5428 107.664 59.4306 106.43 60.123 105.599C61.2615 104.232 62.8489 103.006 63.5143 102.547C64.4047 101.933 65.6242 102.157 66.2382 103.048Z" fill="#FFF8F8"/>
<path d="M61.2352 84.0831C61.2352 83.075 60.6 82.2577 59.8166 82.2577C59.0331 82.2577 58.398 83.075 58.398 84.0831C58.398 85.0912 59.0331 85.9084 59.8166 85.9084C60.6 85.9084 61.2352 85.0912 61.2352 84.0831Z" fill="#F3BC96"/>
<path d="M79.8775 83.7919C79.8775 82.7838 79.2424 81.9665 78.4589 81.9665C77.6754 81.9665 77.0403 82.7838 77.0403 83.7919C77.0403 84.8 77.6754 85.6172 78.4589 85.6172C79.2424 85.6172 79.8775 84.8 79.8775 83.7919Z" fill="#F3BC96"/>
<path d="M99.9985 135.615C99.9985 136.427 99.2587 137.084 98.3461 137.084C97.4336 137.084 96.6938 136.427 96.6938 135.615C96.6938 134.804 97.4336 134.147 98.3461 134.147C99.2587 134.147 99.9985 134.804 99.9985 135.615Z" fill="#DEC674"/>
<path d="M92.5537 134.626C92.5537 135.437 91.8139 136.094 90.9014 136.094C89.9888 136.094 89.249 135.437 89.249 134.626C89.249 133.815 89.9888 133.157 90.9014 133.157C91.8139 133.157 92.5537 133.815 92.5537 134.626Z" fill="#DEC674"/>
<path d="M89.249 143.388C89.249 144.2 88.5093 144.857 87.5967 144.857C86.6841 144.857 85.9444 144.2 85.9444 143.388C85.9444 142.577 86.6841 141.92 87.5967 141.92C88.5093 141.92 89.249 142.577 89.249 143.388Z" fill="#DEC674"/>
<path d="M99.5859 124.097C99.5859 124.601 99.1259 125.01 98.5583 125.01C97.9908 125.01 97.5307 124.601 97.5307 124.097C97.5307 123.592 97.9908 123.183 98.5583 123.183C99.1259 123.183 99.5859 123.592 99.5859 124.097Z" fill="#DEC674"/>
<path d="M109.87 115.642C109.87 116.146 109.41 116.555 108.843 116.555C108.275 116.555 107.815 116.146 107.815 115.642C107.815 115.137 108.275 114.728 108.843 114.728C109.41 114.728 109.87 115.137 109.87 115.642Z" fill="#DEC674"/>
<path d="M103.689 119.562C103.689 120.066 103.229 120.475 102.662 120.475C102.094 120.475 101.634 120.066 101.634 119.562C101.634 119.057 102.094 118.648 102.662 118.648C103.229 118.648 103.689 119.057 103.689 119.562Z" fill="#DEC674"/>
<path d="M88.6243 138.834C88.6243 139.339 88.1643 139.748 87.5967 139.748C87.0292 139.748 86.5691 139.339 86.5691 138.834C86.5691 138.33 87.0292 137.921 87.5967 137.921C88.1643 137.921 88.6243 138.33 88.6243 138.834Z" fill="#DEC674"/>
<path d="M83.6673 145.382C83.6673 145.887 83.2072 146.296 82.6397 146.296C82.0722 146.296 81.6121 145.887 81.6121 145.382C81.6121 144.878 82.0722 144.469 82.6397 144.469C83.2072 144.469 83.6673 144.878 83.6673 145.382Z" fill="#DEC674"/>
<path d="M103.689 127.252C103.689 128.063 102.949 128.721 102.037 128.721C101.124 128.721 100.385 128.063 100.385 127.252C100.385 126.441 101.124 125.784 102.037 125.784C102.949 125.784 103.689 126.441 103.689 127.252Z" fill="#DEC674"/>
<path d="M97.8881 129.659C97.8881 130.764 96.881 131.659 95.6386 131.659C94.3962 131.659 93.3891 130.764 93.3891 129.659C93.3891 128.555 94.3962 127.66 95.6386 127.66C96.881 127.66 97.8881 128.555 97.8881 129.659Z" fill="#DEC674"/>
<path d="M108.843 121.561C108.843 122.665 107.835 123.561 106.593 123.561C105.351 123.561 104.344 122.665 104.344 121.561C104.344 120.457 105.351 119.561 106.593 119.561C107.835 119.561 108.843 120.457 108.843 121.561Z" fill="#DEC674"/>
<path d="M95.966 139.92C95.966 141.025 94.9588 141.92 93.7165 141.92C92.4741 141.92 91.467 141.025 91.467 139.92C91.467 138.816 92.4741 137.921 93.7165 137.921C94.9588 137.921 95.966 138.816 95.966 139.92Z" fill="#DEC674"/>
</svg>
